<mxfile host="app.diagrams.net" agent="Mozilla/5.0 (Windows NT 10.0; Win64; x64) AppleWebKit/537.36 (KHTML, like Gecko) Chrome/130.0.0.0 Safari/537.36 Edg/130.0.0.0" version="24.8.3">
  <diagram name="Trang-1" id="Y0DSbNlWYStTgyxXqgrq">
    <mxGraphModel dx="485" dy="314" grid="1" gridSize="10" guides="1" tooltips="1" connect="1" arrows="1" fold="1" page="1" pageScale="1" pageWidth="827" pageHeight="1169" math="0" shadow="0">
      <root>
        <mxCell id="0" />
        <mxCell id="1" parent="0" />
        <mxCell id="b7yGZ_ioXiEITeZUOLeZ-1" value="BUSINESS LOGIC LAYER" style="rounded=0;whiteSpace=wrap;html=1;fillColor=#dae8fc;gradientColor=#7ea6e0;strokeColor=#6c8ebf;" vertex="1" parent="1">
          <mxGeometry x="160" y="400" width="120" height="60" as="geometry" />
        </mxCell>
        <mxCell id="b7yGZ_ioXiEITeZUOLeZ-4" style="edgeStyle=orthogonalEdgeStyle;rounded=0;orthogonalLoop=1;jettySize=auto;html=1;entryX=0.5;entryY=0;entryDx=0;entryDy=0;" edge="1" parent="1" source="b7yGZ_ioXiEITeZUOLeZ-2" target="b7yGZ_ioXiEITeZUOLeZ-1">
          <mxGeometry relative="1" as="geometry" />
        </mxCell>
        <mxCell id="b7yGZ_ioXiEITeZUOLeZ-2" value="UI LAYER" style="rounded=0;whiteSpace=wrap;html=1;fillColor=#dae8fc;strokeColor=#6c8ebf;gradientColor=#7ea6e0;" vertex="1" parent="1">
          <mxGeometry x="160" y="300" width="120" height="60" as="geometry" />
        </mxCell>
        <mxCell id="b7yGZ_ioXiEITeZUOLeZ-3" value="DATA LAYER" style="shape=cylinder3;whiteSpace=wrap;html=1;boundedLbl=1;backgroundOutline=1;size=15;fillColor=#dae8fc;gradientColor=#7ea6e0;strokeColor=#6c8ebf;" vertex="1" parent="1">
          <mxGeometry x="160" y="504.5" width="120" height="80" as="geometry" />
        </mxCell>
        <mxCell id="b7yGZ_ioXiEITeZUOLeZ-5" style="edgeStyle=orthogonalEdgeStyle;rounded=0;orthogonalLoop=1;jettySize=auto;html=1;entryX=0.5;entryY=0;entryDx=0;entryDy=0;entryPerimeter=0;" edge="1" parent="1" source="b7yGZ_ioXiEITeZUOLeZ-1" target="b7yGZ_ioXiEITeZUOLeZ-3">
          <mxGeometry relative="1" as="geometry" />
        </mxCell>
        <mxCell id="b7yGZ_ioXiEITeZUOLeZ-10" style="edgeStyle=orthogonalEdgeStyle;rounded=0;orthogonalLoop=1;jettySize=auto;html=1;entryX=0.5;entryY=0;entryDx=0;entryDy=0;" edge="1" parent="1" source="b7yGZ_ioXiEITeZUOLeZ-6" target="b7yGZ_ioXiEITeZUOLeZ-8">
          <mxGeometry relative="1" as="geometry">
            <Array as="points">
              <mxPoint x="540" y="330" />
            </Array>
          </mxGeometry>
        </mxCell>
        <mxCell id="b7yGZ_ioXiEITeZUOLeZ-13" style="edgeStyle=orthogonalEdgeStyle;rounded=0;orthogonalLoop=1;jettySize=auto;html=1;entryX=0.5;entryY=0;entryDx=0;entryDy=0;" edge="1" parent="1" source="b7yGZ_ioXiEITeZUOLeZ-6" target="b7yGZ_ioXiEITeZUOLeZ-7">
          <mxGeometry relative="1" as="geometry" />
        </mxCell>
        <mxCell id="b7yGZ_ioXiEITeZUOLeZ-6" value="CONTROLLER" style="rounded=0;whiteSpace=wrap;html=1;fillColor=#fad9d5;strokeColor=#ae4132;" vertex="1" parent="1">
          <mxGeometry x="360" y="300" width="120" height="60" as="geometry" />
        </mxCell>
        <mxCell id="b7yGZ_ioXiEITeZUOLeZ-11" style="edgeStyle=orthogonalEdgeStyle;rounded=0;orthogonalLoop=1;jettySize=auto;html=1;entryX=0.5;entryY=1;entryDx=0;entryDy=0;" edge="1" parent="1" source="b7yGZ_ioXiEITeZUOLeZ-7" target="b7yGZ_ioXiEITeZUOLeZ-8">
          <mxGeometry relative="1" as="geometry">
            <Array as="points">
              <mxPoint x="540" y="545" />
            </Array>
          </mxGeometry>
        </mxCell>
        <mxCell id="b7yGZ_ioXiEITeZUOLeZ-7" value="VIEW" style="rounded=0;whiteSpace=wrap;html=1;fillColor=#fad9d5;strokeColor=#ae4132;" vertex="1" parent="1">
          <mxGeometry x="360" y="514.5" width="120" height="60" as="geometry" />
        </mxCell>
        <mxCell id="b7yGZ_ioXiEITeZUOLeZ-8" value="MODEL" style="rounded=0;whiteSpace=wrap;html=1;fillColor=#fad9d5;strokeColor=#ae4132;" vertex="1" parent="1">
          <mxGeometry x="480" y="410" width="120" height="60" as="geometry" />
        </mxCell>
      </root>
    </mxGraphModel>
  </diagram>
</mxfile>
